<svg width="40" height="32" viewBox="0 0 40 32" fill="none" xmlns="http://www.w3.org/2000/svg">
<path d="M8.23529 32C5.62091 32 3.57298 31.0846 2.0915 29.2537C0.697168 27.4229 0 24.7562 0 21.2537C0 16.4776 1.17647 12.3383 3.52941 8.83582C5.88235 5.33333 9.32462 2.38806 13.8562 0L16.9935 4.65672C13.6819 6.64677 11.1983 8.79602 9.54248 11.1045C7.88671 13.3333 7.05882 16.1194 7.05882 19.4627C7.32026 19.3831 7.71242 19.3433 8.23529 19.3433C9.97821 19.3433 11.5468 19.8607 12.9412 20.8955C14.4227 21.9303 15.1634 23.4428 15.1634 25.4328C15.1634 27.5025 14.5098 29.1343 13.2026 30.3284C11.8954 31.4428 10.2397 32 8.23529 32ZM31.2418 32C28.6275 32 26.5795 31.0846 25.098 29.2537C23.7037 27.4229 23.0065 24.7562 23.0065 21.2537C23.0065 16.4776 24.183 12.3383 26.5359 8.83582C28.8889 5.33333 32.3312 2.38806 36.8627 0L40 4.65672C36.6885 6.64677 34.2048 8.79602 32.549 11.1045C30.8932 13.3333 30.0654 16.1194 30.0654 19.4627C30.3268 19.3831 30.719 19.3433 31.2418 19.3433C32.9847 19.3433 34.5534 19.8607 35.9477 20.8955C37.4292 21.9303 38.1699 23.4428 38.1699 25.4328C38.1699 27.5025 37.5163 29.1343 36.2092 30.3284C34.902 31.4428 33.2462 32 31.2418 32Z" fill="#C51F43"/>
</svg>
