<svg width="22" height="24" viewBox="0 0 22 24" fill="none" xmlns="http://www.w3.org/2000/svg">
<path d="M7.0625 24C5.15625 24 3.51562 23.3125 2.14062 21.9375C0.796875 20.5938 0.125 18.9688 0.125 17.0625C0.125 15.125 0.8125 13.4844 2.1875 12.1406L12.7344 1.54688C13.7656 0.515625 15.0156 0 16.4844 0C17.9844 0 19.25 0.53125 20.2812 1.59375C21.3438 2.625 21.875 3.89062 21.875 5.39062C21.875 6.85937 21.3438 8.10938 20.2812 9.14062L11.4219 18.0469C10.6719 18.7656 9.78125 19.125 8.75 19.125C7.71875 19.125 6.82812 18.7656 6.07812 18.0469C5.32812 17.2969 4.95312 16.4062 4.95312 15.375C4.95312 14.3438 5.32812 13.4531 6.07812 12.7031L13.625 5.15625C13.875 4.90625 14.125 4.90625 14.375 5.15625L15.1719 5.95312C15.4531 6.23438 15.4531 6.5 15.1719 6.75L7.67188 14.2969C7.35938 14.5781 7.20312 14.9375 7.20312 15.375C7.20312 15.7812 7.35938 16.1406 7.67188 16.4531C7.98438 16.7344 8.34375 16.875 8.75 16.875C9.1875 16.875 9.54688 16.7344 9.82812 16.4531L18.7344 7.54688C19.3281 6.95312 19.625 6.23438 19.625 5.39062C19.625 4.51562 19.3125 3.78125 18.6875 3.1875C18.0938 2.5625 17.3594 2.25 16.4844 2.25C15.6406 2.25 14.9062 2.54687 14.2812 3.14062L3.73438 13.6875C2.82812 14.625 2.375 15.75 2.375 17.0625C2.375 18.3438 2.82812 19.4531 3.73438 20.3906C4.67188 21.2969 5.78125 21.75 7.0625 21.75C8.375 21.75 9.5 21.2812 10.4375 20.3438C13.4375 17.3438 16.4844 14.2812 19.5781 11.1562C19.8594 10.9062 20.125 10.9062 20.375 11.1562L21.1719 11.9531C21.4531 12.2344 21.4531 12.5 21.1719 12.75C18.1406 15.8125 15.0938 18.875 12.0312 21.9375C10.6562 23.3125 9 24 7.0625 24Z" fill="#9CA5B6"/>
</svg>
