<svg width="18" height="18" viewBox="0 0 18 18" fill="none" xmlns="http://www.w3.org/2000/svg">
<path d="M17.25 7.5C17.4688 7.5 17.6406 7.57812 17.7656 7.73438C17.9219 7.85938 18 8.03125 18 8.25V9.75C18 9.96875 17.9219 10.1562 17.7656 10.3125C17.6406 10.4375 17.4688 10.5 17.25 10.5H10.5V17.25C10.5 17.4688 10.4219 17.6562 10.2656 17.8125C10.1406 17.9375 9.96875 18 9.75 18H8.25C8.03125 18 7.84375 17.9375 7.6875 17.8125C7.5625 17.6562 7.5 17.4688 7.5 17.25V10.5H0.75C0.53125 10.5 0.34375 10.4375 0.1875 10.3125C0.0625 10.1562 0 9.96875 0 9.75V8.25C0 8.03125 0.0625 7.85938 0.1875 7.73438C0.34375 7.57812 0.53125 7.5 0.75 7.5H7.5V0.75C7.5 0.53125 7.5625 0.359375 7.6875 0.234375C7.84375 0.078125 8.03125 0 8.25 0H9.75C9.96875 0 10.1406 0.078125 10.2656 0.234375C10.4219 0.359375 10.5 0.53125 10.5 0.75V7.5H17.25Z" fill="#C51F43"/>
</svg>
